<svg width="24" height="24" viewBox="0 0 24 24" fill="none" xmlns="http://www.w3.org/2000/svg">
<g clip-path="url(#clip0_342_1369)">
<path d="M10.7107 9.68549L13.5607 6.83549C13.6099 6.78804 13.6491 6.73126 13.6761 6.66849C13.7031 6.60571 13.7173 6.53819 13.7179 6.46987C13.7185 6.40154 13.7055 6.33378 13.6796 6.27054C13.6537 6.2073 13.6155 6.14984 13.5672 6.10153C13.5189 6.05321 13.4614 6.01501 13.3982 5.98914C13.335 5.96327 13.2672 5.95025 13.1989 5.95086C13.1305 5.95146 13.063 5.96566 13.0002 5.99264C12.9375 6.01962 12.8807 6.05884 12.8332 6.10799L9.98324 8.95799C9.88677 9.05442 9.83255 9.18521 9.83252 9.32161C9.83248 9.45801 9.88663 9.58883 9.98306 9.68531C10.0795 9.78178 10.2103 9.836 10.3467 9.83603C10.4831 9.83607 10.6139 9.78192 10.7104 9.68549H10.7107Z" fill="#2C9E07"/>
<path d="M15.3639 9.2625C15.4881 9.26265 15.6095 9.22596 15.7128 9.15708C15.816 9.0882 15.8966 8.99022 15.9442 8.87556C15.9917 8.76089 16.0042 8.63468 15.98 8.51291C15.9559 8.39115 15.8961 8.27929 15.8083 8.19151C15.7205 8.10372 15.6087 8.04395 15.4869 8.01977C15.3651 7.99559 15.2389 8.00807 15.1242 8.05565C15.0096 8.10323 14.9116 8.18376 14.8427 8.28704C14.7738 8.39033 14.7372 8.51173 14.7373 8.63587C14.7375 8.802 14.8036 8.96127 14.9211 9.07875C15.0385 9.19622 15.1978 9.2623 15.3639 9.2625Z" fill="#2C9E07"/>
<path d="M23.4855 10.7197H23.2774C23.2277 10.7196 23.1792 10.7048 23.138 10.6771C23.0968 10.6495 23.0646 10.6103 23.0456 10.5644C23.0266 10.5186 23.0216 10.4681 23.0312 10.4194C23.0408 10.3707 23.0646 10.326 23.0996 10.2907L23.8496 9.54075C23.8974 9.49303 23.9353 9.43636 23.9612 9.37398C23.9871 9.31159 24.0004 9.24472 24.0004 9.17719C24.0004 9.10965 23.9871 9.04278 23.9612 8.9804C23.9353 8.91801 23.8974 8.86134 23.8496 8.81362L22.7396 7.70437C22.6558 7.62036 22.5454 7.56793 22.4273 7.55597C22.3092 7.54401 22.1906 7.57326 22.0916 7.63875C21.8635 7.78945 21.5959 7.86954 21.3225 7.869C20.9812 7.86543 20.652 7.74167 20.3929 7.51945C20.1338 7.29724 19.9613 6.9908 19.9058 6.654C19.88 6.48695 19.8885 6.31642 19.9305 6.15272C19.9725 5.98901 20.0473 5.83552 20.1502 5.7015C20.2164 5.60233 20.2462 5.48334 20.2347 5.3647C20.2231 5.24605 20.1709 5.13505 20.0869 5.0505L18.9495 3.9135C18.8657 3.82945 18.7554 3.77701 18.6374 3.76512C18.5193 3.75322 18.4007 3.7826 18.3019 3.84825C18.0734 3.99935 17.8055 4.0797 17.5316 4.07925C17.1909 4.07614 16.8622 3.95269 16.6036 3.7307C16.345 3.50872 16.1733 3.20249 16.1186 2.86612C16.0937 2.69818 16.1024 2.52694 16.1442 2.36239C16.1861 2.19783 16.2602 2.04324 16.3624 1.90762C16.4273 1.80867 16.4562 1.69039 16.4441 1.57266C16.4321 1.45492 16.3799 1.34492 16.2964 1.26112L15.1875 0.149999C15.1398 0.102196 15.083 0.0642726 15.0206 0.0383985C14.9582 0.0125244 14.8913 -0.000793457 14.8237 -0.000793457C14.7562 -0.000793457 14.6893 0.0125244 14.6269 0.0383985C14.5645 0.0642726 14.5077 0.102196 14.46 0.149999L3.963 10.6462C3.93979 10.6699 3.91213 10.6886 3.88162 10.7015C3.85112 10.7144 3.81836 10.7211 3.78525 10.7212H0.5145C0.378306 10.7212 0.247667 10.7752 0.151223 10.8714C0.0547784 10.9676 0.000397068 11.0981 0 11.2342V12.804C0.000668398 12.9233 0.0425417 13.0387 0.118532 13.1307C0.194522 13.2227 0.299961 13.2856 0.417 13.3088C0.657416 13.3615 0.880077 13.4756 1.06329 13.6399C1.24651 13.8043 1.38403 14.0133 1.46246 14.2466C1.5409 14.4799 1.55757 14.7295 1.51085 14.9712C1.46413 15.2128 1.35561 15.4382 1.19587 15.6255C0.993563 15.8582 0.713794 16.0096 0.408375 16.0519C0.293018 16.0765 0.189586 16.14 0.115288 16.2316C0.0409894 16.3232 0.000303829 16.4375 0 16.5555L0 18.1639C0.000668398 18.2832 0.0425417 18.3986 0.118532 18.4906C0.194522 18.5826 0.299961 18.6455 0.417 18.6686C0.657452 18.7214 0.880141 18.8355 1.06337 18.9999C1.24659 19.1643 1.38411 19.3734 1.46251 19.6067C1.54091 19.84 1.55752 20.0897 1.51073 20.3314C1.46393 20.5731 1.35533 20.7985 1.1955 20.9858C0.993436 21.2184 0.713953 21.37 0.40875 21.4125C0.293449 21.4371 0.190027 21.5004 0.115669 21.5918C0.0413103 21.6833 0.000493274 21.7975 0 21.9154L0 23.4855C0 23.622 0.0542061 23.7528 0.150694 23.8493C0.247181 23.9458 0.378046 24 0.5145 24H23.4855C23.622 24 23.7528 23.9458 23.8493 23.8493C23.9458 23.7528 24 23.622 24 23.4855V21.9154C23.9993 21.7957 23.9573 21.68 23.881 21.5878C23.8047 21.4956 23.6989 21.4326 23.5815 21.4095C23.3414 21.3565 23.1191 21.2422 22.9362 21.0778C22.7533 20.9134 22.6161 20.7044 22.5379 20.4713C22.4597 20.2381 22.4431 19.9887 22.4898 19.7473C22.5365 19.5059 22.645 19.2806 22.8045 19.0935C23.0068 18.8607 23.2865 18.7091 23.592 18.6667C23.7072 18.642 23.8104 18.5787 23.8846 18.4872C23.9588 18.3957 23.9995 18.2817 24 18.1639V16.5555C23.9992 16.4359 23.9571 16.3203 23.8809 16.2281C23.8046 16.136 23.6988 16.0731 23.5815 16.05C23.3414 15.997 23.1191 15.8827 22.9362 15.7183C22.7533 15.5539 22.6161 15.3449 22.5379 15.1118C22.4597 14.8786 22.4431 14.6292 22.4898 14.3878C22.5365 14.1464 22.645 13.9211 22.8045 13.734C23.0068 13.5012 23.2865 13.3495 23.592 13.3069C23.7073 13.2823 23.8106 13.2191 23.8849 13.1275C23.9591 13.036 23.9998 12.9218 24 12.804V11.2342C23.9996 11.0979 23.9453 10.9673 23.8489 10.8709C23.7525 10.7745 23.6218 10.7201 23.4855 10.7197ZM5.775 10.2907L14.6453 1.41937C14.6686 1.39602 14.6963 1.37749 14.7268 1.36484C14.7573 1.3522 14.79 1.3457 14.823 1.3457C14.856 1.3457 14.8887 1.3522 14.9192 1.36484C14.9497 1.37749 14.9774 1.39602 15.0007 1.41937C15.0892 1.53187 15.3191 1.64662 15.2423 1.86375C15.1118 2.2305 15.0715 2.62323 15.1246 3.00885C15.1777 3.39446 15.3227 3.76166 15.5474 4.0795C15.7721 4.39734 16.07 4.6565 16.4158 4.83514C16.7617 5.01379 17.1454 5.10668 17.5346 5.106C18.2674 5.106 18.4058 4.82437 18.6079 5.02612C18.8494 5.30925 19.1156 5.41875 19.0324 5.6535C18.9021 6.02024 18.8617 6.41291 18.9148 6.79848C18.9678 7.18406 19.1127 7.55125 19.3372 7.86917C19.5617 8.1871 19.8593 8.44646 20.2049 8.62543C20.5505 8.8044 20.934 8.89775 21.3232 8.89762C22.0485 8.89762 22.1951 8.61525 22.3969 8.81625C22.4659 8.895 22.8094 9.12525 22.5806 9.35437L21.8224 10.1137L21.45 10.4861C21.3759 10.5602 21.2879 10.619 21.1911 10.6591C21.0942 10.6992 20.9904 10.7198 20.8856 10.7197H5.95088C5.9014 10.7192 5.85316 10.7042 5.81221 10.6764C5.77126 10.6486 5.73941 10.6094 5.72064 10.5636C5.70187 10.5178 5.69702 10.4675 5.70669 10.419C5.71635 10.3704 5.74012 10.3258 5.775 10.2907ZM22.971 12.2587C22.971 12.3031 22.9593 12.3466 22.9371 12.385C22.9148 12.4233 22.8828 12.4551 22.8442 12.477C22.5565 12.6119 22.2951 12.7969 22.0721 13.0234C21.8167 13.3054 21.6306 13.6431 21.5285 14.0096C21.4264 14.3761 21.4112 14.7614 21.484 15.1349C21.5568 15.5083 21.7156 15.8597 21.9479 16.161C22.1802 16.4624 22.4795 16.7054 22.8221 16.8709C22.8664 16.8911 22.904 16.9234 22.9306 16.9642C22.9571 17.005 22.9715 17.0525 22.9721 17.1011V17.5669C22.9786 17.6236 22.9677 17.6809 22.9409 17.7313C22.9142 17.7817 22.8727 17.8229 22.8221 17.8492C22.4795 18.0147 22.1802 18.2577 21.9479 18.559C21.7156 18.8603 21.5568 19.2116 21.484 19.585C21.4112 19.9585 21.4264 20.3437 21.5285 20.7102C21.6306 21.0767 21.8167 21.4144 22.0721 21.6964C22.2952 21.9229 22.5567 22.1079 22.8446 22.2427C22.8832 22.2648 22.9152 22.2966 22.9374 22.335C22.9597 22.3734 22.9714 22.417 22.9714 22.4614C22.9556 22.5326 23.0573 22.9714 22.7201 22.9714H1.27988C0.933375 22.9714 1.04775 22.5465 1.029 22.4614C1.02901 22.417 1.04073 22.3734 1.06299 22.335C1.08525 22.2966 1.11724 22.2648 1.15575 22.2427C1.44365 22.1078 1.70523 21.9226 1.92825 21.696C2.18348 21.414 2.36948 21.0763 2.47148 20.7099C2.57349 20.3435 2.5887 19.9583 2.51591 19.5849C2.44312 19.2116 2.28433 18.8603 2.05214 18.5591C1.81994 18.2578 1.52074 18.0147 1.17825 17.8492C1.13401 17.829 1.09643 17.7966 1.06987 17.7559C1.04332 17.7151 1.02888 17.6676 1.02825 17.619V17.1529C1.0217 17.0962 1.03254 17.0389 1.05933 16.9885C1.08612 16.9381 1.1276 16.8971 1.17825 16.8709C1.52074 16.7053 1.81995 16.4623 2.05214 16.1609C2.28433 15.8596 2.44312 15.5084 2.51591 15.135C2.5887 14.7616 2.57349 14.3764 2.47148 14.0099C2.36948 13.6435 2.18348 13.3058 1.92825 13.0237C1.70523 12.7971 1.44365 12.612 1.15575 12.477C1.11722 12.4551 1.0852 12.4233 1.06293 12.385C1.04067 12.3466 1.02896 12.3031 1.029 12.2587C1.04475 12.1867 0.943125 11.7487 1.27988 11.7487H22.7197C23.0666 11.7487 22.9522 12.1736 22.971 12.2587Z" fill="#2C9E07"/>
<path d="M5.82727 14.8125H18.1726C18.2414 14.8144 18.3097 14.8024 18.3738 14.7774C18.4378 14.7524 18.4961 14.7148 18.5454 14.6669C18.5947 14.6189 18.6338 14.5616 18.6605 14.4983C18.6873 14.435 18.701 14.3669 18.701 14.2982C18.701 14.2295 18.6873 14.1614 18.6605 14.0981C18.6338 14.0348 18.5947 13.9775 18.5454 13.9295C18.4961 13.8816 18.4378 13.844 18.3738 13.819C18.3097 13.794 18.2414 13.782 18.1726 13.7839H5.82727C5.69327 13.7875 5.56597 13.8433 5.47248 13.9393C5.37898 14.0354 5.32666 14.1641 5.32666 14.2982C5.32666 14.4322 5.37898 14.561 5.47248 14.6571C5.56597 14.7531 5.69327 14.8089 5.82727 14.8125Z" fill="#2C9E07"/>
<path d="M18.1724 19.9084H5.827C5.69055 19.9084 5.55968 19.9626 5.46319 20.0591C5.36671 20.1556 5.3125 20.2864 5.3125 20.4229C5.3125 20.5593 5.36671 20.6902 5.46319 20.7867C5.55968 20.8832 5.69055 20.9374 5.827 20.9374H18.1724C18.3088 20.9374 18.4397 20.8832 18.5362 20.7867C18.6327 20.6902 18.6869 20.5593 18.6869 20.4229C18.6869 20.2864 18.6327 20.1556 18.5362 20.0591C18.4397 19.9626 18.3088 19.9084 18.1724 19.9084Z" fill="#2C9E07"/>
<path d="M5.82757 17.9873C5.95165 17.9873 6.07295 17.9505 6.17612 17.8815C6.27929 17.8126 6.3597 17.7146 6.40718 17.6C6.45467 17.4853 6.46709 17.3592 6.44288 17.2375C6.41868 17.1158 6.35893 17.004 6.27119 16.9163C6.18345 16.8285 6.07166 16.7688 5.94996 16.7446C5.82826 16.7203 5.70212 16.7328 5.58748 16.7803C5.47285 16.8277 5.37486 16.9082 5.30593 17.0113C5.23699 17.1145 5.2002 17.2358 5.2002 17.3599C5.2002 17.5263 5.26629 17.6858 5.38395 17.8035C5.5016 17.9212 5.66118 17.9873 5.82757 17.9873Z" fill="#2C9E07"/>
<path d="M7.25781 17.3599C7.25774 17.484 7.29448 17.6054 7.36339 17.7086C7.4323 17.8118 7.53027 17.8923 7.64493 17.9398C7.75958 17.9873 7.88576 17.9998 8.00749 17.9756C8.12922 17.9514 8.24105 17.8917 8.32881 17.8039C8.41657 17.7161 8.47633 17.6043 8.50052 17.4826C8.52472 17.3608 8.51226 17.2347 8.46473 17.12C8.4172 17.0053 8.33673 16.9074 8.2335 16.8385C8.13027 16.7695 8.00893 16.7328 7.88481 16.7329C7.71855 16.733 7.55913 16.7991 7.44157 16.9166C7.324 17.0342 7.25791 17.1936 7.25781 17.3599Z" fill="#2C9E07"/>
<path d="M9.31543 17.3599C9.31536 17.484 9.3521 17.6054 9.42101 17.7086C9.48991 17.8118 9.58789 17.8923 9.70255 17.9398C9.8172 17.9873 9.94338 17.9998 10.0651 17.9756C10.1868 17.9514 10.2987 17.8917 10.3864 17.8039C10.4742 17.7161 10.534 17.6043 10.5581 17.4826C10.5823 17.3608 10.5699 17.2347 10.5224 17.12C10.4748 17.0053 10.3944 16.9074 10.2911 16.8385C10.1879 16.7695 10.0665 16.7328 9.94243 16.7329C9.77614 16.7329 9.61666 16.7989 9.49907 16.9165C9.38149 17.0341 9.31543 17.1936 9.31543 17.3599Z" fill="#2C9E07"/>
<path d="M11.3726 17.3599C11.3725 17.484 11.4092 17.6053 11.4781 17.7085C11.547 17.8118 11.645 17.8922 11.7596 17.9398C11.8742 17.9873 12.0004 17.9998 12.1221 17.9756C12.2438 17.9515 12.3557 17.8917 12.4434 17.804C12.5312 17.7163 12.591 17.6045 12.6152 17.4828C12.6395 17.3611 12.6271 17.2349 12.5796 17.1203C12.5321 17.0056 12.4517 16.9076 12.3485 16.8386C12.2454 16.7697 12.124 16.7329 11.9999 16.7329C11.8336 16.7329 11.6741 16.7989 11.5564 16.9165C11.4388 17.0341 11.3727 17.1936 11.3726 17.3599Z" fill="#2C9E07"/>
<path d="M13.4302 17.3599C13.4301 17.484 13.4668 17.6053 13.5357 17.7085C13.6046 17.8118 13.7026 17.8922 13.8172 17.9398C13.9318 17.9873 14.058 17.9998 14.1797 17.9756C14.3014 17.9515 14.4133 17.8917 14.501 17.804C14.5888 17.7163 14.6486 17.6045 14.6729 17.4828C14.6971 17.3611 14.6847 17.2349 14.6372 17.1203C14.5897 17.0056 14.5093 16.9076 14.4061 16.8386C14.303 16.7697 14.1817 16.7329 14.0576 16.7329C13.8912 16.7329 13.7317 16.7989 13.6141 16.9165C13.4964 17.0341 13.4303 17.1936 13.4302 17.3599Z" fill="#2C9E07"/>
<path d="M15.4873 17.3599C15.4872 17.484 15.524 17.6053 15.5929 17.7085C15.6617 17.8118 15.7597 17.8922 15.8743 17.9398C15.989 17.9873 16.1151 17.9998 16.2369 17.9756C16.3586 17.9515 16.4704 17.8917 16.5582 17.804C16.646 17.7163 16.7057 17.6045 16.73 17.4828C16.7542 17.3611 16.7418 17.2349 16.6943 17.1203C16.6469 17.0056 16.5665 16.9076 16.4633 16.8386C16.3601 16.7697 16.2388 16.7329 16.1147 16.7329C15.9484 16.7329 15.7888 16.7989 15.6712 16.9165C15.5535 17.0341 15.4874 17.1936 15.4873 17.3599Z" fill="#2C9E07"/>
<path d="M18.1727 16.7329C18.0486 16.7328 17.9272 16.7695 17.824 16.8385C17.7207 16.9074 17.6403 17.0053 17.5927 17.12C17.5452 17.2347 17.5328 17.3608 17.557 17.4826C17.5812 17.6043 17.6409 17.7161 17.7287 17.8039C17.8164 17.8917 17.9283 17.9514 18.05 17.9756C18.1717 17.9998 18.2979 17.9873 18.4126 17.9398C18.5272 17.8923 18.6252 17.8118 18.6941 17.7086C18.763 17.6054 18.7997 17.484 18.7997 17.3599C18.7997 17.1936 18.7336 17.0341 18.616 16.9165C18.4984 16.7989 18.339 16.7329 18.1727 16.7329Z" fill="#2C9E07"/>
</g>
<defs>
<clipPath id="clip0_342_1369">
<rect width="24" height="24" fill="white"/>
</clipPath>
</defs>
</svg>
