<svg width="40" height="40" viewBox="0 0 40 40" fill="none" xmlns="http://www.w3.org/2000/svg">
<rect width="40" height="40" rx="5" fill="#C7E8CA"/>
<path d="M11.8999 9.69538H18.0591V9.16045V9.15802C18.0591 9.14024 18.0594 9.12321 18.0616 9.1058C18.0755 8.80783 18.2024 8.53736 18.397 8.34102L18.3957 8.33971C18.5996 8.13308 18.8827 8.00468 19.1945 8.00168L19.1987 8.00206V8H19.2044H22.8766H22.8796C22.8992 8 22.9178 8.00168 22.9367 8.00412C23.229 8.01984 23.4942 8.14637 23.6872 8.3429C23.8907 8.54953 24.017 8.83609 24.0202 9.15053L24.0196 9.15446H24.0222V9.16045V9.6952H30.0999H30.103C30.1285 9.6952 30.1525 9.69782 30.1771 9.70156C30.3954 9.7214 30.5933 9.81854 30.7374 9.96547L30.7381 9.96678L30.739 9.96547C30.8962 10.1259 30.995 10.3488 30.9978 10.5959L30.9974 10.6018H31V10.6078V12.6347C31 12.9102 30.7793 13.1335 30.5075 13.1335H30.4945H11.4925C11.2207 13.1333 11 12.91 11 12.6347V12.6229V10.6078V10.6052C11 10.5854 11.0007 10.5657 11.0033 10.5463V10.5423C11.0198 10.3164 11.1186 10.1111 11.2659 9.96248L11.2646 9.9621C11.4238 9.80095 11.6445 9.70081 11.8883 9.69744L11.8942 9.69782V9.69538H11.8999ZM25.3663 17.1895H24.2684V27.6884H25.3663V17.1895ZM21.7964 17.1895H20.698V27.6884H21.7964V17.1895ZM18.2266 17.1895H17.1284V27.6884H18.2266V17.1895ZM13.0014 13.9088H29.1397L29.1912 13.9121L29.2147 13.9134L29.2394 13.9155H29.2411L29.2712 13.9198C29.5229 13.9503 29.7584 14.0675 29.9309 14.2395C30.123 14.4313 30.2458 14.6915 30.2458 14.9814C30.2458 14.9998 30.2441 15.0176 30.2423 15.035L30.2419 15.0477L30.2393 15.0765L28.874 29.9256L28.8727 29.9337H28.874L28.871 29.9597L28.8616 30.0127L28.8608 30.017C28.8507 30.0789 28.8387 30.1379 28.8222 30.1907L28.821 30.1948L28.8189 30.1991L28.8147 30.2107L28.8139 30.2146C28.7921 30.2809 28.7652 30.3453 28.7342 30.4035C28.5478 30.7554 28.2025 31 27.7731 31H14.3483L14.3026 30.9974H14.3006L14.2947 30.9966C14.2098 30.9923 14.1305 30.9796 14.0568 30.9588C13.9802 30.9371 13.9058 30.9053 13.8358 30.8662L13.8341 30.8658C13.5045 30.6829 13.2843 30.3267 13.2483 29.9262L11.9012 15.0732L11.8992 15.0498L11.8972 15.0035L11.8964 14.9818C11.8964 14.6911 12.0181 14.4304 12.2108 14.2386C12.391 14.0598 12.6392 13.9393 12.9044 13.9155L12.927 13.9148V13.9134L12.9824 13.911L13.0016 13.9114L13.0014 13.9088ZM29.1399 14.9071H13.0014V14.9058L12.98 14.9066C12.9499 14.9107 12.9205 14.9264 12.8991 14.9481C12.8874 14.9599 12.8799 14.9728 12.8799 14.9816H12.8786L12.8799 15.0037L14.2247 29.8358V29.838C14.2306 29.9084 14.262 29.9674 14.3073 29.9925L14.3224 29.9992L14.334 30.0014H14.3483H27.7736C27.8119 30.0014 27.8473 29.9721 27.8693 29.9309L27.8848 29.894L27.8948 29.8536L27.8974 29.8278L29.262 15.002L29.2614 14.9814C29.2614 14.973 29.2538 14.9607 29.2424 14.9492C29.2202 14.9272 29.1896 14.9114 29.1591 14.9068L29.1399 14.9071ZM18.551 10.6932H11.9847V12.1355H30.0151V10.6932H23.5411H23.5295C23.2576 10.6932 23.0375 10.4701 23.0375 10.1946V9.16045V9.15446H23.0388C23.0375 9.11329 23.0192 9.07342 22.991 9.04497C22.9657 9.01858 22.9311 9.00211 22.8947 8.9978H22.8796H22.8766H19.2044H19.1987C19.1594 8.99911 19.1208 9.01615 19.0923 9.04516H19.0903C19.0661 9.07024 19.0476 9.10374 19.0425 9.13893L19.0438 9.15802V9.16045V10.1944C19.0436 10.4699 18.8229 10.6932 18.551 10.6932Z" fill="#2C9E07"/>
</svg>
