<svg width="40" height="40" viewBox="0 0 40 40" fill="none" xmlns="http://www.w3.org/2000/svg">
<rect width="40" height="40" rx="5" fill="#C7E8CA"/>
<path d="M28.9126 20.6206H20.5577C20.1981 20.6206 19.9066 20.3427 19.9066 19.9999C19.9066 19.6569 20.1981 19.379 20.5577 19.379H28.9122L26.1836 16.4288C25.9465 16.1729 25.9715 15.7821 26.2397 15.5559C26.508 15.3296 26.9178 15.3534 27.1551 15.6092L30.8372 19.5903C31.0575 19.8278 31.0517 20.1819 30.8349 20.4126L27.1549 24.3908C26.9178 24.6468 26.5078 24.6706 26.2395 24.4441C25.9713 24.2179 25.9463 23.8269 26.1834 23.571L28.9126 20.6206ZM26.6557 27.4589C26.6557 27.116 26.9501 26.838 27.3132 26.838C27.6765 26.838 27.9708 27.116 27.9708 27.4589V30.2406C27.9708 30.724 27.7605 31.1643 27.423 31.4828C27.0852 31.8016 26.6189 32 26.1073 32H13.8638C13.3518 32 12.8852 31.802 12.5474 31.4832C12.2102 31.1648 12 30.7252 12 30.2406L12 9.75958C12 9.27521 12.2096 8.83516 12.547 8.51641C12.8844 8.19785 13.3505 8 13.8638 8L26.1071 8C26.6199 8 27.0858 8.19844 27.4232 8.5168C27.7611 8.83575 27.9706 9.27638 27.9706 9.75958V12.5411C27.9706 12.8838 27.6763 13.1618 27.313 13.1618C26.9499 13.1618 26.6555 12.8838 26.6555 12.5411V9.75958C26.6555 9.61857 26.5932 9.48907 26.4931 9.39454C26.3934 9.3004 26.2564 9.24161 26.1068 9.24161H13.8638C13.7136 9.24161 13.5764 9.30021 13.4769 9.39435C13.377 9.48829 13.3151 9.61779 13.3151 9.75958L13.3151 30.2406C13.3151 30.382 13.3774 30.5111 13.4771 30.6053C13.5773 30.6998 13.7144 30.7586 13.8638 30.7586H26.1071C26.256 30.7586 26.3928 30.6996 26.4929 30.6051C26.5932 30.5105 26.6557 30.3812 26.6557 30.2406V27.4589Z" fill="#2C9E07"/>
</svg>
