<svg width="40" height="40" viewBox="0 0 40 40" fill="none" xmlns="http://www.w3.org/2000/svg">
<rect width="40" height="40" rx="5" fill="#C7E8CA"/>
<path d="M21.1455 28.4131C21.7169 28.3388 22.1683 28.8867 21.9746 29.4193C21.8734 29.6893 21.6384 29.8788 21.3467 29.9167C20.6756 30.0014 19.9976 30.0216 19.3224 29.9769C16.8316 29.8124 14.5905 28.7538 12.9303 27.1255C11.1199 25.3499 10 22.8967 10 20.1876C10 17.478 11.1199 15.0252 12.9303 13.2496C14.7407 11.474 17.2415 10.3755 20.0041 10.3755C20.9619 10.3755 21.8954 10.5107 22.785 10.7628C23.5149 10.9693 24.2182 11.2574 24.881 11.6213L24.6838 11.1149C24.5193 10.6905 24.7364 10.2157 25.1687 10.0539C25.6014 9.89255 26.0854 10.1055 26.2504 10.5299L27.0839 12.6689C27.1153 12.7503 27.1336 12.836 27.138 12.9229C27.2034 13.3215 26.96 13.7165 26.5552 13.8369L24.3229 14.5067C23.881 14.638 23.4145 14.3933 23.2806 13.9604C23.1468 13.5274 23.3962 13.0694 23.8376 12.9381L24.0213 12.8831C23.4922 12.6022 22.9339 12.3779 22.3559 12.2141C21.6161 12.0046 20.8272 11.8921 20.0041 11.8921C17.6686 11.8921 15.5538 12.8205 14.0236 14.3218C12.4929 15.8227 11.5462 17.8965 11.5462 20.1876C11.5462 22.4782 12.4929 24.552 14.0236 26.0533C15.4104 27.4135 17.277 28.3037 19.3531 28.4584C19.9467 28.5026 20.5575 28.4881 21.1455 28.4131ZM18.4726 16.1967C18.4726 15.7782 18.8188 15.4386 19.2459 15.4386C19.6726 15.4386 20.0188 15.7782 20.0188 16.1967V20.8124L23.24 22.2011C23.6304 22.3696 23.8073 22.8166 23.6356 23.1995C23.4639 23.5821 23.0081 23.756 22.6177 23.5876L18.9738 22.0167C18.681 21.9085 18.4726 21.6314 18.4726 21.3067V16.1967ZM23.8392 27.6026C23.2169 27.9149 23.2998 28.8101 23.9703 29.0066C24.1643 29.0606 24.3575 29.0442 24.5384 28.9555C25.0372 28.7097 25.5161 28.4201 25.9651 28.095C26.1842 27.9348 26.2982 27.6824 26.2747 27.4155C26.2149 26.8258 25.5305 26.5269 25.044 26.877C24.6642 27.1521 24.2611 27.3948 23.8392 27.6026ZM26.993 24.8849C26.6408 25.3999 27.0364 26.0924 27.6691 26.065C27.9165 26.0521 28.1381 25.9333 28.2767 25.7301C28.5899 25.2745 28.8604 24.7974 29.0923 24.2972C29.3158 23.8033 28.9675 23.25 28.4165 23.2269C28.1006 23.2167 27.8145 23.3898 27.6831 23.6724C27.4867 24.0963 27.2584 24.4988 26.993 24.8849ZM28.4138 20.996C28.3859 21.2938 28.5333 21.5728 28.7958 21.724C29.2883 21.9983 29.8954 21.6912 29.9532 21.1391C30.0062 20.5912 30.0146 20.0488 29.9763 19.4998C29.9572 19.2361 29.8018 19.0035 29.5628 18.8805C29.0265 18.6077 28.391 19.0157 28.4337 19.6061C28.4663 20.0719 28.4588 20.531 28.4138 20.996ZM27.7731 16.9173C27.9464 17.3092 28.4114 17.4854 28.807 17.3065C29.1883 17.1345 29.3592 16.6965 29.1938 16.3182C28.9747 15.8145 28.711 15.3304 28.4094 14.8693C28.0305 14.298 27.1388 14.4645 27.001 15.1331C26.9631 15.3296 26.999 15.5215 27.1094 15.6907C27.3651 16.0822 27.5875 16.4894 27.7731 16.9173Z" fill="#2C9E07"/>
</svg>
