<svg width="40" height="40" viewBox="0 0 40 40" fill="none" xmlns="http://www.w3.org/2000/svg">
<rect width="40" height="40" rx="5" fill="#C7E8CA"/>
<path d="M12.5712 17.5551H13.0925V15.9212C13.0925 14.0234 13.8106 12.296 14.9679 11.0417C16.1297 9.78183 17.7341 9 19.5 9C21.2661 9 22.8703 9.78183 24.0324 11.0415C25.1895 12.2958 25.9077 14.0234 25.9077 15.921V17.5549H26.429C26.8614 17.5549 27.2545 17.7383 27.5389 18.034C27.8233 18.3298 28 18.738 28 19.1874V30.3675C28 30.8169 27.8235 31.2253 27.5389 31.5208C27.2543 31.8164 26.8614 32 26.429 32H12.5712C12.1386 32 11.7457 31.8166 11.4611 31.5208C11.1765 31.2251 11 30.8172 11 30.3676V19.1876C11 18.7382 11.1767 18.3298 11.4611 18.0342C11.7457 17.7387 12.1386 17.5551 12.5712 17.5551ZM18.9254 25.3407L18.1707 27.3957H20.8297L20.1301 25.3124C20.5741 25.0747 20.8776 24.5936 20.8776 24.039C20.8776 23.2486 20.2607 22.6077 19.5002 22.6077C18.7395 22.6077 18.1226 23.2488 18.1226 24.039C18.1224 24.6165 18.4515 25.1142 18.9254 25.3407ZM14.1977 17.5551H24.8025V15.9212C24.8025 14.3282 24.2034 12.8822 23.2379 11.8359C22.2775 10.7948 20.9545 10.1487 19.5 10.1487C18.0455 10.1487 16.7225 10.7948 15.7621 11.8357C14.7968 12.882 14.1975 14.328 14.1975 15.921L14.1977 17.5551ZM26.429 18.7038H12.5712C12.4437 18.7038 12.3275 18.7584 12.2428 18.8464C12.1582 18.9344 12.1056 19.0553 12.1056 19.1876V30.3676C12.1056 30.5 12.1582 30.6209 12.2428 30.7087C12.3275 30.7968 12.4439 30.8513 12.5712 30.8513H26.4291C26.5567 30.8513 26.673 30.7968 26.7575 30.7087C26.8422 30.6207 26.8948 30.5 26.8948 30.3676V19.1876C26.8948 19.0553 26.8422 18.9344 26.7575 18.8464C26.6727 18.7584 26.5565 18.7038 26.429 18.7038Z" fill="#2C9E07"/>
</svg>
