<svg width="15" height="30" viewBox="0 0 15 30" fill="none" xmlns="http://www.w3.org/2000/svg">
<path d="M11.6667 0C11.2246 0 10.8007 0.158035 10.4882 0.43934C10.1756 0.720644 10 1.10218 10 1.5V6H3.33333C1.48333 6 0 7.335 0 9V27C0 28.665 1.48333 30 3.33333 30H11.6667C13.5167 30 15 28.665 15 27V9C15 7.89 14.3333 6.93 13.3333 6.42V1.5C13.3333 1.10218 13.1577 0.720644 12.8452 0.43934C12.5326 0.158035 12.1087 0 11.6667 0ZM3.33333 9H11.6667V16.5H3.33333V9ZM3.33333 19.5H5V21H3.33333V19.5ZM6.66667 19.5H8.33333V21H6.66667V19.5ZM10 19.5H11.6667V21H10V19.5ZM3.33333 22.5H5V24H3.33333V22.5ZM6.66667 22.5H8.33333V24H6.66667V22.5ZM10 22.5H11.6667V24H10V22.5ZM3.33333 25.5H5V27H3.33333V25.5ZM6.66667 25.5H8.33333V27H6.66667V25.5ZM10 25.5H11.6667V27H10V25.5Z" fill="#92603F"/>
</svg>
