<svg width="40" height="40" viewBox="0 0 40 40" fill="none" xmlns="http://www.w3.org/2000/svg">
<rect width="40" height="40" rx="5" fill="#C7E8CA"/>
<path fill-rule="evenodd" clip-rule="evenodd" d="M19.9658 9C23.6949 11.3661 27.064 12.4851 29.955 12.2209C30.4601 22.4434 26.6885 28.4806 20.0044 31C13.5495 28.6417 9.73147 22.8644 10.0147 12.0654C13.4087 12.2433 16.7387 11.5091 19.9658 9ZM18.1786 19.8196C18.4051 20.0118 18.6187 20.2187 18.8181 20.439C19.443 19.4321 20.1095 18.5077 20.813 17.6576C22.8026 15.2524 21.9009 15.7159 24.6606 15.7159L24.2773 16.1425C23.0988 17.4527 22.7014 18.1352 21.7353 19.5318C20.7692 20.93 19.9057 22.3729 19.137 23.858L18.8984 24.3198L18.6786 23.8498C18.2735 22.9786 17.7877 22.1796 17.2091 21.4653C16.6301 20.7509 16.1246 20.2852 15.3396 19.7461C15.6993 18.5644 17.4113 19.1692 18.1786 19.8196ZM19.9722 10.7028C23.0649 12.6647 26.0335 13.7678 28.4309 13.5483C28.8498 22.0259 25.5473 27.2073 20.0048 29.2968C14.6512 27.3414 11.3104 22.3755 11.5452 13.4198C14.6516 13.5827 17.4984 12.6264 19.9722 10.7028Z" fill="#2C9E07"/>
</svg>
