<svg width="40" height="40" viewBox="0 0 40 40" fill="none" xmlns="http://www.w3.org/2000/svg">
<rect width="40" height="40" rx="5" fill="#C7E8CA"/>
<path d="M27.392 23.0399C27.777 22.1039 27.986 21.1017 27.986 20.0004C27.986 19.2075 27.865 18.4476 27.656 17.7428C26.941 17.908 26.193 17.9961 25.412 17.9961C23.8126 17.9978 22.2362 17.6145 20.8157 16.8785C19.3952 16.1426 18.1723 15.0755 17.25 13.7672C16.2634 16.1572 14.4022 18.0796 12.047 19.1414C12.003 19.4167 12.003 19.7141 12.003 20.0004C12.003 21.0518 12.2098 22.0929 12.6117 23.0643C13.0136 24.0357 13.6027 24.9183 14.3453 25.6617C15.845 27.1632 17.8791 28.0067 20 28.0067C21.155 28.0067 22.266 27.7534 23.267 27.3019C23.894 28.5023 24.18 29.097 24.158 29.097C22.354 29.7027 20.957 30 20 30C17.338 30 14.797 28.9538 12.927 27.0706C11.7896 25.9354 10.9441 24.541 10.463 23.0069H9V17.9961H10.199C10.5623 16.2258 11.3974 14.587 12.6159 13.2536C13.8344 11.9201 15.3907 10.9418 17.1197 10.4224C18.8487 9.90294 20.6859 9.86182 22.4364 10.3034C24.1868 10.7449 25.7852 11.6526 27.062 12.9302C28.4482 14.3126 29.3938 16.0756 29.779 17.9961H31V23.0069H30.934L27.018 26.6081L21.188 25.9473V24.1082H26.501L27.392 23.0399ZM16.997 19.7471C17.327 19.7471 17.646 19.8793 17.877 20.1216C18.1092 20.3559 18.2394 20.6725 18.2394 21.0026C18.2394 21.3326 18.1092 21.6493 17.877 21.8836C17.646 22.1149 17.327 22.247 16.997 22.247C16.304 22.247 15.743 21.6964 15.743 21.0026C15.743 20.3088 16.304 19.7471 16.997 19.7471ZM22.992 19.7471C23.685 19.7471 24.235 20.3088 24.235 21.0026C24.235 21.6964 23.685 22.247 22.992 22.247C22.299 22.247 21.738 21.6964 21.738 21.0026C21.738 20.6696 21.8701 20.3503 22.1053 20.1148C22.3405 19.8794 22.6594 19.7471 22.992 19.7471Z" fill="#2C9E07"/>
</svg>
